<svg width="196" height="196" viewBox="0 0 196 196" fill="none" xmlns="http://www.w3.org/2000/svg">
<path d="M57.1667 119.778H73.7722C75.95 119.778 77.8102 118.961 79.3528 117.328C80.8954 115.694 81.6667 113.789 81.6667 111.611V100.722H73.5V111.611H57.1667V84.3889H81.1222C81.1222 82.2111 80.3963 80.3056 78.9445 78.6722C77.4926 77.0389 75.6778 76.2222 73.5 76.2222H57.1667C54.8074 76.2222 52.8565 76.9935 51.3139 78.5361C49.7713 80.0787 49 82.0296 49 84.3889V111.611C49 113.97 49.7713 115.921 51.3139 117.464C52.8565 119.006 54.8074 119.778 57.1667 119.778ZM93.9167 119.778H102.083V76.2222H93.9167V119.778ZM114.333 119.778H122.5V103.444H141.556V95.2778H122.5V84.3889H147V76.2222H114.333V119.778ZM16.3333 196C11.9778 196 8.16667 194.367 4.9 191.1C1.63333 187.833 0 184.022 0 179.667V16.3333C0 11.9778 1.63333 8.16667 4.9 4.9C8.16667 1.63333 11.9778 0 16.3333 0H179.667C184.022 0 187.833 1.63333 191.1 4.9C194.367 8.16667 196 11.9778 196 16.3333V179.667C196 184.022 194.367 187.833 191.1 191.1C187.833 194.367 184.022 196 179.667 196H16.3333ZM16.3333 179.667H179.667V16.3333H16.3333V179.667ZM16.3333 16.3333V179.667V16.3333Z" fill="#22D3EE"/>
</svg>
